<svg xmlns="http://www.w3.org/2000/svg" viewBox="0 0 100 100" width="100" height="100">
  <rect width="100" height="100" rx="20" fill="#FF0000"/>
  <path d="M79.5 35.5C78.5 31.8 75.7 28.9 72 27.9C65.5 26 50 26 50 26C50 26 34.5 26 28 27.9C24.3 28.9 21.5 31.8 20.5 35.5C18.6 42.2 18.6 50 18.6 50C18.6 50 18.6 57.8 20.5 64.5C21.5 68.2 24.3 71.1 28 72.1C34.5 74 50 74 50 74C50 74 65.5 74 72 72.1C75.7 71.1 78.5 68.2 79.5 64.5C81.4 57.8 81.4 50 81.4 50C81.4 50 81.4 42.2 79.5 35.5Z" fill="white"/>
  <path d="M43 61.5V38.5L63 50L43 61.5Z" fill="#FF0000"/>
</svg>
